<svg width="56" height="53" viewBox="0 0 56 53" fill="none" xmlns="http://www.w3.org/2000/svg">
<path fill-rule="evenodd" clip-rule="evenodd" d="M28.0918 53C24.8641 51.3768 21.8438 49.363 19.0973 47.003C16.7362 45.1163 14.5643 42.9997 12.6129 40.6837C12.174 40.0312 11.6742 39.4228 11.1205 38.8667C10.352 37.9771 9.7715 36.9454 9.09744 36.1036C8.18732 34.5569 7.20115 33.0817 6.32338 31.6189C4.7351 28.7 3.44222 25.6266 2.46436 22.4455C2.14572 21.7203 1.92319 20.9558 1.80254 20.1718C1.39425 19.6966 1.32431 17.7099 1.01569 17.0607C0.293208 13.9046 -0.0461756 10.6714 0.00503839 7.43237C0.0924653 6.54903 4.1211 5.23287 5.13525 4.67283C8.68765 3.24608 12.3443 2.10019 16.0724 1.2455C19.934 0.167833 24.5956 0.0636 28.6714 0C30.3055 0.0883333 32.0103 0.1325 33.7151 0.25705C39.2336 0.709615 44.6533 1.9987 49.792 4.081C51.2923 4.68214 52.7602 5.36266 54.1896 6.11973C55.7817 7.02162 55.8455 6.63737 55.9521 8.57275C55.6612 16.3083 53.6673 23.881 50.1155 30.74C46.5493 37.6238 41.5216 43.6263 35.3919 48.3183C34.8158 48.9013 33.848 49.2352 33.3497 49.82C33.3094 50.2157 33.0786 50.0108 32.7779 50.1901C31.4187 51.1489 30.0062 52.0281 28.5473 52.8233C28.4087 52.9125 28.2538 52.9726 28.0918 53ZM28.0778 47.7609C26.4621 46.8501 24.9185 45.8144 23.4608 44.6631C20.0569 41.9305 16.9912 38.7936 14.3299 35.3201C13.2345 34.2813 12.5394 32.5685 11.6879 31.4184C10.65 29.6533 9.71776 27.8268 8.89635 25.9488C7.60429 22.9975 6.61215 19.9213 5.93521 16.7674C5.77609 15.8691 4.66402 10.0311 5.24278 9.49583C9.78286 7.07992 15.1762 5.84148 20.2741 4.91752C21.756 4.76735 23.334 4.49175 24.8684 4.45642C27.8814 4.1826 30.9148 4.23739 33.9162 4.61983C36.184 5.04383 38.5341 5.20283 40.8518 5.86975C44.2771 6.48808 47.5408 8.16642 50.8184 9.39513C51.2267 9.61508 51.2556 9.63275 51.301 10.1389C51.1116 12.4047 50.787 14.6569 50.3288 16.8832C49.8314 18.7461 49.333 20.7212 48.7237 22.6248C46.3895 29.2641 42.6273 35.2978 37.7079 40.2915C36.94 41.1481 36.1132 41.9489 35.2337 42.688C35.1979 43.1367 29.0727 47.617 28.0778 47.7609Z" fill="#9EDBF4"/>
<path fill-rule="evenodd" clip-rule="evenodd" d="M28.0138 48.801C26.3248 47.8487 24.7113 46.7658 23.1878 45.5618C19.6329 42.7078 16.4313 39.4315 13.6521 35.8036C12.5077 34.718 11.7821 32.9328 10.8956 31.7262C9.81169 29.884 8.83805 27.9779 7.97989 26.0181C6.631 22.9361 5.59522 19.7237 4.88847 16.4304C4.72236 15.4923 3.56133 9.39726 4.16545 8.83369C8.90662 6.31089 14.5404 5.01769 19.8647 4.05221C21.4113 3.89586 23.061 3.61054 24.6636 3.57079C27.8108 3.28467 30.9793 3.34183 34.1144 3.74128C36.4828 4.18294 38.9378 4.35254 41.3586 5.04596C44.9326 5.68991 48.3449 7.44951 51.7729 8.72858C52.2022 8.95913 52.2266 8.97768 52.2774 9.50503C52.0796 11.8714 51.7407 14.2236 51.2623 16.5487C50.7439 18.4921 50.2219 20.5573 49.5864 22.543C47.1489 29.477 43.2201 35.7785 38.0827 40.9941C37.2827 41.8893 36.4211 42.7264 35.5045 43.4992C35.4538 43.9762 29.0576 48.6552 28.0138 48.801Z" fill="#E30016"/>
<path fill-rule="evenodd" clip-rule="evenodd" d="M28.1154 47.5228C26.2889 46.6116 24.5892 45.461 23.0604 44.1008C22.1243 43.1303 21.1066 42.2436 20.0188 41.4508C19.3194 40.6355 18.3507 39.9429 17.7807 39.1259C14.8493 35.9994 12.3613 32.4773 10.3878 28.6601C9.75049 27.2318 8.94441 25.8812 8.44783 24.4678C8.14183 24.1145 8.10949 23.3195 7.85945 23.0351C7.78426 21.9636 6.90387 20.5043 6.73601 19.4134C5.65541 16.9047 5.67377 13.7821 5.14834 11.2328C5.12211 9.85485 4.94026 9.37167 6.57165 9.01657C9.98577 7.46257 13.5618 6.30078 17.2325 5.55302C24.2467 4.31193 31.8529 3.84642 38.9091 5.55302C42.6564 6.29747 46.3129 7.44957 49.8147 8.98918C50.7074 9.46088 51.2888 9.39728 51.0658 10.6587C50.1837 20.1725 46.5516 29.214 40.6218 36.6578C39.6601 37.8238 38.5795 39.0534 37.512 40.1859C35.8859 41.5568 34.4635 43.395 32.6109 44.5796C32.0111 45.0822 29.0526 47.4681 28.118 47.5237L28.1154 47.5228ZM26.345 37.1145C22.7858 36.6366 19.0387 35.4627 16.6135 32.8966C17.3313 33.2042 18.0318 33.5516 18.7117 33.9372C21.2206 35.039 23.966 35.4768 26.6888 35.2093C29.4116 34.9417 32.022 33.9777 34.2737 32.4081C37.8477 30.1865 40.1007 25.5791 40.3866 21.6367C40.5309 18.9212 39.9058 16.2204 38.5848 13.851C37.2557 11.4704 35.2891 9.51679 32.9108 8.2145C32.8085 8.16327 31.0066 7.32498 30.9209 7.22605C30.941 7.0114 33.5892 7.88678 33.9809 8.02105C37.3987 9.36247 40.2142 11.9188 41.8982 15.2096C43.5697 18.4835 43.9836 22.2663 43.0601 25.8299C42.004 29.3217 39.7921 32.3405 36.7951 34.3806C33.7793 36.4358 30.1628 37.397 26.5365 37.1074L26.345 37.1145ZM16.7709 27.4712C16.4413 27.3696 15.3939 26.8793 15.5889 26.5816C16.937 26.0075 19.1235 26.1665 17.5726 24.3733C17.3103 23.9414 17.6277 22.5386 18.3253 23.558C18.7152 23.8345 19.6367 23.7779 19.4182 23.0925C19.6315 20.9937 19.9943 23.0792 20.5416 23.4785C21.1422 23.8248 24.2266 24.0747 23.3655 22.6747C22.2062 21.4786 21.5356 20.189 22.5577 18.7703C23.9818 17.9773 25.5226 17.4202 27.1213 17.1203C26.9325 19.0132 22.6381 18.6599 22.5148 19.8877C22.7112 20.3279 22.9653 20.7394 23.2702 21.1112C25.6185 23.4299 22.5559 26.1214 19.948 24.2117C19.8457 24.2028 19.1611 24.6533 18.9032 24.7143C18.7896 24.8026 18.8508 25.0676 18.8315 25.2566C18.5806 26.2212 17.9957 27.5065 16.7709 27.4712ZM20.3291 27.003C18.9539 26.3785 19.4654 26.3343 19.9891 25.534C20.2067 25.4545 21.0959 25.8776 21.06 26.2221C20.9062 26.4527 20.6229 26.9288 20.3291 27.0056V27.003ZM24.9357 25.7928C24.843 25.6851 24.8806 25.2151 24.885 25.1816C24.7897 24.4749 23.7248 20.007 24.7014 20.0962C24.9243 20.6501 25.4008 21.3488 25.1455 21.991C25.1158 22.2816 25.8265 25.6029 24.9313 25.7955L24.9357 25.7928ZM30.531 25.8008C28.4546 25.0703 29.7905 22.1791 28.8847 21.7604C28.0105 21.6809 28.0795 24.6357 27.4807 25.2257C25.5765 26.5781 26.0678 20.9248 26.6501 21.2693C26.7166 21.5661 26.0329 24.7143 27.1607 24.2072C28.069 23.1472 27.423 21.5634 28.7055 20.552C30.1918 20.007 29.3367 23.6181 30.322 24.4722C32.8146 25.3158 29.9068 21.0785 31.2837 20.8806C32.0181 21.7286 31.2968 24.6365 33.3995 24.3397C34.5666 23.9157 32.1685 20.9283 33.4869 19.5494C34.0814 19.6042 34.1234 22.475 34.3437 22.8769C34.4906 24.444 33.6364 26.359 31.8302 25.0049C31.5915 24.9863 31.2593 25.7866 30.5336 25.7999L30.531 25.8008ZM35.4269 25.1127C35.3795 24.6976 35.3637 24.2794 35.3797 23.8619C35.0886 21.9812 34.4757 20.8947 35.1323 19.0609C35.2835 18.9426 35.9488 20.4071 35.7276 20.9274C35.6831 21.3691 36.5766 24.8627 35.4278 25.1144L35.4269 25.1127ZM16.0548 18.6025C15.4848 17.9444 14.9559 17.3225 14.475 16.721C14.0982 15.7891 11.1528 17.7863 11.4291 17.0399C11.9842 16.3803 12.5037 15.6908 12.9853 14.9746C12.5016 14.2066 11.9647 13.4743 11.3784 12.7831C11.4203 12.375 13.7511 13.6912 14.2722 13.2813C14.7307 12.5383 15.2507 11.8359 15.8267 11.1816C16.1327 11.9483 15.6763 13.261 16.0618 13.9438C16.909 14.2627 17.9546 14.434 18.9329 14.7653C19.0929 15.0621 16.4168 15.6062 16.1143 15.8439C16.1565 16.7628 16.1372 17.6835 16.0566 18.5998L16.0548 18.6025ZM29.9732 18.3189C28.9241 17.7571 29.2991 15.7573 29.6864 15.9843C29.7293 16.411 29.502 17.819 30.5686 17.3358C30.7994 17.1247 30.9646 15.7458 31.2033 16.7466C31.525 17.433 32.5873 17.365 32.1834 16.7784C31.9106 14.2106 33.7815 17.607 32.0374 18.137C31.6536 18.1591 31.1316 17.7969 30.9804 17.9144C30.8689 18.0731 30.7144 18.1959 30.5354 18.2677C30.3563 18.3386 30.1619 18.3564 29.9732 18.3189ZM30.865 15.9587C30.7697 15.9498 30.3474 13.5922 30.809 13.2283C31.0931 13.2751 31.5084 15.8642 30.8658 15.9525L30.865 15.9587Z" fill="#9EDBF4"/>
<path fill-rule="evenodd" clip-rule="evenodd" d="M26.3467 37.1148C22.7876 36.6369 19.0405 35.463 16.6152 32.896C17.333 33.2036 18.0335 33.551 18.7135 33.9366C21.2224 35.0384 23.9677 35.4762 26.6905 35.2086C29.4133 34.9411 32.0237 33.9771 34.2755 32.4075C37.8486 30.1859 40.1025 25.5785 40.3884 21.6361C40.5326 18.9206 39.9075 16.2198 38.5865 13.8504C37.2571 11.47 35.2902 9.51673 32.9116 8.21477C32.8093 8.16354 31.0075 7.32526 30.9218 7.22632C30.9419 7.01167 33.59 7.88706 33.9817 8.02132C37.3993 9.36293 40.2144 11.9192 41.8982 15.2099C43.5692 18.4832 43.9831 22.2653 43.0601 25.8284C42.004 29.3202 39.7921 32.3391 36.7951 34.3791C33.7794 36.4346 30.1629 37.3962 26.5364 37.1068L26.3467 37.1148Z" fill="white"/>
<path fill-rule="evenodd" clip-rule="evenodd" d="M16.0575 18.597C15.4875 17.9389 14.9585 17.317 14.4777 16.7155C14.1009 15.7836 11.1555 17.7808 11.4317 17.0344C11.9859 16.3764 12.5045 15.6888 12.9853 14.9744C12.5017 14.2065 11.9647 13.4741 11.3784 12.7829C11.4204 12.3757 13.7512 13.691 14.2722 13.2811C14.7307 12.5381 15.2507 11.8356 15.8267 11.1814C16.1327 11.9481 15.6763 13.2608 16.0619 13.9436C16.909 14.2625 17.9547 14.4338 18.933 14.7651C19.093 15.0619 16.4168 15.606 16.1143 15.8436C16.1555 16.7618 16.1354 17.6816 16.054 18.597H16.0575Z" fill="white"/>
<path d="M28.0138 48.8005C26.3242 47.8482 24.7099 46.7655 23.1852 45.5622C19.6329 42.7071 16.4334 39.4305 13.6557 35.8031C12.9442 35.045 12.3404 34.1906 11.8617 33.2644C11.5682 32.7348 11.2472 32.2211 10.9 31.7257C9.81649 29.8833 8.84286 27.9772 7.9843 26.0176C6.63461 22.9355 5.59739 19.7232 4.88851 16.4299C4.87715 16.3663 4.86141 16.2788 4.84218 16.1719C4.01949 11.6501 3.79305 9.18211 4.16549 8.83408C9.02206 6.24856 14.8272 4.96596 19.863 4.05171C20.3709 4.00048 20.899 3.93423 21.4104 3.87063C22.4797 3.73636 23.5848 3.59768 24.6636 3.56853C25.9698 3.45193 27.2943 3.39186 28.6057 3.39186C30.4471 3.39364 32.2867 3.51164 34.1136 3.74519C34.9433 3.89978 35.8 4.02344 36.6288 4.14358C38.2235 4.3381 39.8034 4.64088 41.3578 5.04988C43.9061 5.61114 46.389 6.44162 48.7654 7.52763C49.7508 7.93661 50.7693 8.35884 51.7712 8.73161C52.1987 8.96128 52.2249 8.97453 52.2756 9.50806C52.0775 11.8744 51.7386 14.2266 51.2606 16.5518C51.1697 16.8933 51.0782 17.2384 50.9861 17.587C50.5542 19.2203 50.1118 20.9092 49.5873 22.5461C47.1491 29.4788 43.22 35.7792 38.0828 40.9936C37.2822 41.8872 36.4206 42.7231 35.5045 43.4952C35.4774 43.7443 33.7875 45.0799 32.1316 46.2706C30.5772 47.388 28.5663 48.7201 28.0147 48.797L28.0138 48.8005ZM28.9064 4.44126C24.9907 4.47314 21.0849 4.84522 17.2323 5.55338C13.5627 6.30203 9.98764 7.46379 6.5741 9.01693C5.09309 9.33846 5.10621 9.75716 5.14205 10.8719C5.14205 10.9841 5.14905 11.1034 5.15167 11.2306C5.33177 12.1051 5.44542 13.0308 5.56695 14.0104C5.70538 15.8573 6.10004 17.6753 6.73934 19.4111C6.86233 19.9899 7.04457 20.5541 7.28314 21.0947C7.56565 21.71 7.76079 22.3624 7.86278 23.0328C7.99122 23.2302 8.08031 23.451 8.12506 23.6829C8.17994 23.9636 8.29123 24.23 8.45203 24.4655C8.78774 25.3551 9.17844 26.2225 9.62181 27.0625C9.88409 27.5811 10.1464 28.1181 10.392 28.6587C12.366 32.4756 14.8539 35.9977 17.7849 39.1245C18.152 39.6079 18.5674 40.0519 19.0246 40.4495C19.3751 40.7655 19.7084 41.1004 20.023 41.4529C21.1107 42.2459 22.1283 43.1325 23.0646 44.1029C24.5934 45.4631 26.2931 46.6137 28.1196 47.525C29.1486 47.4649 32.5784 44.61 32.616 44.5817C33.7359 43.8036 34.7699 42.9062 35.7004 41.9052C36.2853 41.3195 36.8903 40.7145 37.5119 40.1906C38.561 39.0794 39.6337 37.8604 40.6216 36.6635C46.5594 29.2223 50.1923 20.1766 51.0657 10.659C51.2492 9.63879 50.9065 9.48686 50.2876 9.21479C50.145 9.15119 49.9833 9.07964 49.8128 8.98954C46.3107 7.45056 42.6543 6.29848 38.9072 5.55338C35.628 4.78959 32.2716 4.41635 28.9064 4.44126Z" fill="#E30016"/>
<path fill-rule="evenodd" clip-rule="evenodd" d="M28.1154 47.5228C26.2889 46.6116 24.5892 45.461 23.0604 44.1008C22.1243 43.1303 21.1066 42.2436 20.0188 41.4508C19.3194 40.6355 18.3507 39.9429 17.7807 39.1259C14.8493 35.9994 12.3613 32.4773 10.3878 28.6601C9.75049 27.2318 8.94441 25.8812 8.44783 24.4678C8.14183 24.1145 8.10949 23.3195 7.85945 23.0351C7.78426 21.9636 6.90387 20.5043 6.73601 19.4134C5.65541 16.9047 5.67377 13.7821 5.14834 11.2328C5.12211 9.85485 4.94026 9.37167 6.57165 9.01657C9.98577 7.46257 13.5618 6.30078 17.2325 5.55302C24.2467 4.31193 31.8529 3.84642 38.9091 5.55302C42.6564 6.29747 46.3129 7.44957 49.8147 8.98918C50.7074 9.46088 51.2888 9.39728 51.0658 10.6587C50.1837 20.1725 46.5516 29.214 40.6218 36.6578C39.6601 37.8238 38.5795 39.0534 37.512 40.1859C35.8859 41.5568 34.4635 43.395 32.6109 44.5796C32.0111 45.0822 29.0526 47.4681 28.118 47.5237L28.1154 47.5228ZM16.7709 27.4712C16.4413 27.3696 15.3939 26.8793 15.5889 26.5816C16.937 26.0075 19.1235 26.1665 17.5726 24.3733C17.3103 23.9414 17.6277 22.5386 18.3253 23.558C18.7152 23.8345 19.6367 23.7779 19.4182 23.0925C19.6315 20.9937 19.9943 23.0792 20.5416 23.4785C21.1422 23.8248 24.2266 24.0747 23.3655 22.6747C22.2062 21.4786 21.5356 20.189 22.5577 18.7703C23.9818 17.9773 25.5226 17.4202 27.1213 17.1203C26.9325 19.0132 22.6381 18.6599 22.5148 19.8877C22.7112 20.3279 22.9653 20.7394 23.2702 21.1112C25.6185 23.4299 22.5559 26.1214 19.948 24.2117C19.8457 24.2028 19.1611 24.6533 18.9032 24.7143C18.7896 24.8026 18.8508 25.0676 18.8315 25.2566C18.5806 26.2212 17.9957 27.5065 16.7709 27.4712ZM20.3291 27.003C18.9539 26.3785 19.4654 26.3343 19.9891 25.534C20.2067 25.4545 21.0959 25.8776 21.06 26.2221C20.9062 26.4527 20.6229 26.9288 20.3291 27.0056V27.003ZM24.9357 25.7928C24.843 25.6851 24.8806 25.2151 24.885 25.1816C24.7897 24.4749 23.7248 20.007 24.7014 20.0962C24.9243 20.6501 25.4008 21.3488 25.1455 21.991C25.1158 22.2816 25.8265 25.6029 24.9313 25.7955L24.9357 25.7928ZM30.531 25.8008C28.4546 25.0703 29.7905 22.1791 28.8847 21.7604C28.0105 21.6809 28.0795 24.6357 27.4807 25.2257C25.5765 26.5781 26.0678 20.9248 26.6501 21.2693C26.7166 21.5661 26.0329 24.7143 27.1607 24.2072C28.069 23.1472 27.423 21.5634 28.7055 20.552C30.1918 20.007 29.3367 23.6181 30.322 24.4722C32.8146 25.3158 29.9068 21.0785 31.2837 20.8806C32.0181 21.7286 31.2968 24.6365 33.3995 24.3397C34.5666 23.9157 32.1685 20.9283 33.4869 19.5494C34.0814 19.6042 34.1234 22.475 34.3437 22.8769C34.4906 24.444 33.6364 26.359 31.8302 25.0049C31.5915 24.9863 31.2593 25.7866 30.5336 25.7999L30.531 25.8008ZM35.4269 25.1127C35.3795 24.6976 35.3637 24.2794 35.3797 23.8619C35.0886 21.9812 34.4757 20.8947 35.1323 19.0609C35.2835 18.9426 35.9488 20.4071 35.7276 20.9274C35.6831 21.3691 36.5766 24.8627 35.4278 25.1144L35.4269 25.1127ZM29.9732 18.3189C28.9241 17.7571 29.2991 15.7573 29.6864 15.9843C29.7293 16.411 29.502 17.819 30.5686 17.3358C30.7994 17.1247 30.9646 15.7458 31.2033 16.7466C31.525 17.433 32.5873 17.365 32.1834 16.7784C31.9106 14.2106 33.7815 17.607 32.0374 18.137C31.6536 18.1591 31.1316 17.7969 30.9804 17.9144C30.8689 18.0731 30.7144 18.1959 30.5354 18.2677C30.3563 18.3386 30.1619 18.3564 29.9732 18.3189ZM30.865 15.9587C30.7697 15.9498 30.3474 13.5922 30.809 13.2283C31.0931 13.2751 31.5084 15.8642 30.8658 15.9525L30.865 15.9587Z" fill="#9EDBF4"/>
<path fill-rule="evenodd" clip-rule="evenodd" d="M26.3467 37.1148C22.7876 36.6369 19.0405 35.463 16.6152 32.896C17.333 33.2036 18.0335 33.551 18.7135 33.9366C21.2224 35.0384 23.9677 35.4762 26.6905 35.2086C29.4133 34.9411 32.0237 33.9771 34.2755 32.4075C37.8486 30.1859 40.1025 25.5785 40.3884 21.6361C40.5326 18.9206 39.9075 16.2198 38.5865 13.8504C37.2571 11.47 35.2902 9.51673 32.9116 8.21477C32.8093 8.16354 31.0075 7.32526 30.9218 7.22632C30.9419 7.01167 33.59 7.88706 33.9817 8.02132C37.3993 9.36293 40.2144 11.9192 41.8982 15.2099C43.5692 18.4832 43.9831 22.2653 43.0601 25.8284C42.004 29.3202 39.7921 32.3391 36.7951 34.3791C33.7794 36.4346 30.1629 37.3962 26.5364 37.1068L26.3467 37.1148Z" fill="white"/>
<path fill-rule="evenodd" clip-rule="evenodd" d="M16.0575 18.597C15.4875 17.9389 14.9585 17.317 14.4777 16.7155C14.1009 15.7836 11.1555 17.7808 11.4317 17.0344C11.9859 16.3764 12.5045 15.6888 12.9853 14.9744C12.5017 14.2065 11.9647 13.4741 11.3784 12.7829C11.4204 12.3757 13.7512 13.691 14.2722 13.2811C14.7307 12.5381 15.2507 11.8356 15.8267 11.1814C16.1327 11.9481 15.6763 13.2608 16.0619 13.9436C16.909 14.2625 17.9547 14.4338 18.933 14.7651C19.093 15.0619 16.4168 15.606 16.1143 15.8436C16.1555 16.7618 16.1354 17.6816 16.054 18.597H16.0575Z" fill="white"/>
</svg>
